<!-- Save this as pattern.svg -->
<svg width="60" height="60" viewBox="0 0 60 60" xmlns="http://www.w3.org/2000/svg">
  <path d="M54.627 0l.83.828-1.415 1.415L51.8 0h2.827zM5.373 0l-.83.828L5.96 2.243 8.2 0H5.374zM48.97 0l3.657 3.657-1.414 1.414L46.143 0h2.828zM11.03 0L7.372 3.657 8.787 5.07 13.857 0H11.03zm32.284 0L49.8 6.485 48.384 7.9l-7.9-7.9h2.83zM16.686 0L10.2 6.485 11.616 7.9l7.9-7.9h-2.83zM22.344 0L13.858 8.485 15.272 9.9l7.9-7.9h-.828zm5.656 0L17.515 10.485 18.93 11.9l7.9-7.9h-2.83zm5.656 0L23.172 12.485 24.586 13.9l7.9-7.9h-2.83zm5.656 0L28.828 14.485 30.242 15.9l7.9-7.9h-2.83zm5.656 0L32 16.485 33.414 17.9l7.9-7.9h-2.828zm5.657 0L37.657 18.485 39.07 19.9l7.9-7.9h-2.828zm5.657 0L41.598 20.485 43.012 21.9l7.9-7.9h-2.828zm5.657 0L47.255 22.485 48.669 23.9l7.9-7.9h-2.828zM0 0l.828.828-1.414 1.414L0 2.828V0h.828zm5.657 0L8.485 2.828 7.07 4.243 0 2.828V0h5.657zm5.657 0L13.314 2.828l-1.414 1.415L7.828 0h2.829zm5.657 0L18.97 2.828l-1.414 1.415L13.485 0h2.829zm5.657 0L24.627 2.828l-1.414 1.415L19.142 0h2.829zm5.657 0L30.284 2.828l-1.414 1.415L24.799 0h2.829zm5.657 0L35.941 2.828l-1.414 1.415L30.456 0h2.829zm5.657 0L41.598 2.828l-1.414 1.415L36.113 0h2.829zm5.657 0L47.255 2.828l-1.414 1.415L41.77 0h2.829zm5.657 0L52.912 2.828l-1.414 1.415L47.427 0h2.829zM0 5.657l5.657 5.657-1.414 1.415L0 8.485V5.657zm0 5.657l5.657 5.657-1.414 1.415L0 14.142V11.314zm0 5.657l5.657 5.657-1.414 1.415L0 19.799v-2.828zm0 5.657l5.657 5.657-1.414 1.415L0 25.456v-2.828zm0 5.657l5.657 5.657-1.414 1.415L0 31.113v-2.828zm0 5.657l5.657 5.657-1.414 1.415L0 36.77v-2.828zm0 5.657l5.657 5.657-1.414 1.415L0 42.427v-2.828zm0 5.657l5.657 5.657-1.414 1.415L0 48.084v-2.828zm0 5.657l5.657 5.657-1.414 1.415L0 53.741v-2.828zm0 5.657l5.657 5.657-1.414 1.415L0 59.398v-2.828zm0 5.657l5.657 5.657-1.414 1.415L0 65.055v-2.828zm0 5.657l5.657 5.657-1.414 1.415L0 70.712v-2.828z" fill="#ffffff" fill-opacity="0.05" fill-rule="evenodd"/>
</svg>
